<?xml version="1.0" encoding="utf-8"?>
<!-- Generator: Adobe Illustrator 26.3.1, SVG Export Plug-In . SVG Version: 6.00 Build 0)  -->
<svg version="1.1" id="Calque_1" xmlns="http://www.w3.org/2000/svg" xmlns:xlink="http://www.w3.org/1999/xlink" x="0px" y="0px"
	 viewBox="0 0 1953.84 1951.77" style="enable-background:new 0 0 1953.84 1951.77;" xml:space="preserve">
<style type="text/css">
	.st0{fill:#EE803D;}
	.st1{opacity:0.3;fill:#020203;}
	.st2{fill:url(#SVGID_1_);}
	.st3{fill:url(#SVGID_00000051380557266257416210000012758543337563371681_);}
	.st4{fill:#61A4B0;}
	.st5{fill:#016F7E;}
	.st6{fill:#E0302F;}
	.st7{fill:url(#SVGID_00000057113085957624292480000013467832518253703865_);}
	.st8{fill:url(#SVGID_00000005268471069516865350000001345377775476830897_);}
	.st9{opacity:0.3;}
	.st10{fill:#020203;}
	.st11{fill:url(#SVGID_00000120537050139630046620000009518259313044438656_);}
	.st12{fill:url(#SVGID_00000008854035736379603710000012922920917971805109_);}
	.st13{fill:url(#SVGID_00000030475048148324258600000007299153915270398356_);}
	.st14{fill:url(#SVGID_00000115497041951683978670000016322459643036469647_);}
	.st15{fill:url(#SVGID_00000139986982827929666930000017906331058806817975_);}
	.st16{fill:url(#SVGID_00000103965803240763525170000004139733136206787478_);}
	.st17{fill:url(#SVGID_00000071561239413816983070000016612404847664987026_);}
	.st18{fill:url(#SVGID_00000120545019740849871390000017460282979677436079_);}
	.st19{fill:url(#SVGID_00000068665392102134148130000002740454553483730613_);}
	.st20{fill:url(#SVGID_00000132054009409348732650000009199864051678867091_);}
	.st21{fill:url(#SVGID_00000032616552906297555940000017624558438201216143_);}
	.st22{fill:url(#SVGID_00000129908551503829283650000000415646979715389845_);}
	.st23{fill:url(#SVGID_00000114779357906429712720000003027804870159955382_);}
	.st24{opacity:0.7;}
	.st25{fill:#016F7E;stroke:#231F20;stroke-width:2;stroke-linecap:round;stroke-miterlimit:10;}
	.st26{fill:none;}
	.st27{font-family:'Lato-Semibold';}
	.st28{font-size:36px;}
	.st29{font-family:'Lato-Hairline';}
	.st30{font-size:34px;}
</style>
<g>
	<circle class="st0" cx="340.32" cy="1610.31" r="327.13"/>
	<path class="st1" d="M393.76,1913.14c-137.74,0-249.39-111.66-249.39-249.39c0-137.74,111.65-249.39,249.39-249.39
		c137.73,0,249.38,111.65,249.38,249.39C643.15,1801.48,531.5,1913.14,393.76,1913.14z"/>
	<linearGradient id="SVGID_1_" gradientUnits="userSpaceOnUse" x1="132.0068" y1="1427.3036" x2="554.6005" y2="1798.5547">
		<stop  offset="0" style="stop-color:#FFFFFF"/>
		<stop  offset="0.3369" style="stop-color:#FCFCFC"/>
		<stop  offset="0.6371" style="stop-color:#F3F3F4"/>
		<stop  offset="0.9224" style="stop-color:#E4E4E4"/>
		<stop  offset="1" style="stop-color:#DFDFDF"/>
	</linearGradient>
	<circle class="st2" cx="340.32" cy="1610.31" r="263.77"/>
	
		<linearGradient id="SVGID_00000132066300942127005350000010381933096680163721_" gradientUnits="userSpaceOnUse" x1="148.3676" y1="1431.5287" x2="551.2178" y2="1806.7328">
		<stop  offset="0" style="stop-color:#ECECEC"/>
		<stop  offset="0.191" style="stop-color:#F3F3F3"/>
		<stop  offset="0.5719" style="stop-color:#FCFCFC"/>
		<stop  offset="1" style="stop-color:#FFFFFF"/>
	</linearGradient>
	<path style="fill:url(#SVGID_00000132066300942127005350000010381933096680163721_);" d="M340.32,1859.7
		c-137.74,0-249.39-111.66-249.39-249.39c0-137.74,111.65-249.39,249.39-249.39c137.73,0,249.38,111.65,249.38,249.39
		C589.7,1748.04,478.05,1859.7,340.32,1859.7z"/>
</g>
<path class="st4" d="M1281.99,750.53c-31.56-2.43-52.59,31.93-36.07,58.93l-104.75-104.75c27,16.52,61.36-4.51,58.93-36.07
	L1281.99,750.53z"/>
<path class="st4" d="M1277.41,573.58c40.08-5.18,62.81-48.62,44.22-84.5L1461.54,629c-35.88-18.59-79.32,4.14-84.5,44.22
	L1277.41,573.58z"/>
<path class="st5" d="M752.28,668.64c-2.43,31.56,31.93,52.59,58.93,36.07L706.47,809.46c16.52-27-4.51-61.36-36.07-58.93
	L752.28,668.64z"/>
<path class="st5" d="M575.34,673.22c-5.18-40.08-48.62-62.81-84.5-44.22l139.91-139.91c-18.59,35.88,4.14,79.32,44.22,84.5
	L575.34,673.22z"/>
<path class="st0" d="M670.4,1198.34c31.56,2.43,52.59-31.93,36.07-58.93l104.75,104.75c-27-16.52-61.36,4.51-58.93,36.07
	L670.4,1198.34z"/>
<path class="st0" d="M674.97,1375.28c-40.08,5.18-62.81,48.62-44.22,84.5l-139.91-139.91c35.88,18.59,79.32-4.14,84.5-44.22
	L674.97,1375.28z"/>
<path class="st6" d="M1200.1,1280.23c2.43-31.56-31.93-52.59-58.93-36.07l104.75-104.75c-16.52,27,4.51,61.36,36.07,58.93
	L1200.1,1280.23z"/>
<path class="st6" d="M1377.04,1275.65c5.18,40.08,48.62,62.81,84.5,44.22l-139.91,139.91c18.59-35.88-4.14-79.32-44.22-84.5
	L1377.04,1275.65z"/>
<g>
	<path class="st5" d="M975.69,658.3l0,70.2c-134.71,1.3-243.53,110.91-243.53,245.93v0.4l-71.94,0c0,0-0.2-0.26-0.2-0.33
		C660.01,800,801.27,658.41,975.69,658.3z"/>
	<path class="st4" d="M1292.16,974.46c0,0.07,0,0.37,0,0.37l-68.11,0v-0.4c0-135.83-110.12-245.95-245.95-245.95
		c-0.81,0-1.61,0-2.42,0.01l0-70.2c1.8,0,0.23,0.04,0.3,0.04C1150.55,658.34,1292.16,799.89,1292.16,974.46z"/>
	<path class="st6" d="M1292.37,974.83c-0.11,174.43-141.77,315.74-316.27,315.74c-0.07,0,1.39-0.12-0.41-0.12v-70.08
		c0.81,0.01,1.61,0.01,2.42,0.01c135.69,0,245.73-109.9,245.95-245.55L1292.37,974.83z"/>
	<path class="st0" d="M975.69,1220.37v70.08c-174.42-0.11-315.36-141.19-315.47-315.62l71.94,0
		C732.38,1109.68,841.1,1219.07,975.69,1220.37z"/>
</g>
<g>
	<circle class="st5" cx="663.58" cy="661.82" r="88.97"/>
	<path class="st1" d="M678.11,744.18c-37.46,0-67.83-30.37-67.83-67.83c0-37.46,30.37-67.83,67.83-67.83
		c37.46,0,67.82,30.36,67.82,67.83C745.94,713.81,715.57,744.18,678.11,744.18z"/>
	
		<linearGradient id="SVGID_00000147187533864718196700000004338600205879455895_" gradientUnits="userSpaceOnUse" x1="606.9243" y1="612.0497" x2="721.8557" y2="713.0175">
		<stop  offset="0" style="stop-color:#FFFFFF"/>
		<stop  offset="0.3369" style="stop-color:#FCFCFC"/>
		<stop  offset="0.6371" style="stop-color:#F3F3F4"/>
		<stop  offset="0.9224" style="stop-color:#E4E4E4"/>
		<stop  offset="1" style="stop-color:#DFDFDF"/>
	</linearGradient>
	<circle style="fill:url(#SVGID_00000147187533864718196700000004338600205879455895_);" cx="663.58" cy="661.82" r="71.74"/>
	
		<linearGradient id="SVGID_00000103952212120724592230000017535206134940256144_" gradientUnits="userSpaceOnUse" x1="611.3739" y1="613.1987" x2="720.9357" y2="715.2417">
		<stop  offset="0" style="stop-color:#ECECEC"/>
		<stop  offset="0.191" style="stop-color:#F3F3F3"/>
		<stop  offset="0.5719" style="stop-color:#FCFCFC"/>
		<stop  offset="1" style="stop-color:#FFFFFF"/>
	</linearGradient>
	<path style="fill:url(#SVGID_00000103952212120724592230000017535206134940256144_);" d="M663.58,729.65
		c-37.46,0-67.83-30.37-67.83-67.83c0-37.46,30.37-67.83,67.83-67.83c37.46,0,67.82,30.36,67.82,67.83
		C731.4,699.28,701.04,729.65,663.58,729.65z"/>
	<g>
		<g>
			<path class="st5" d="M675,683.5c0,5.85-2.02,8.78-6.07,8.78c-4.05,0-6.07-2.92-6.07-8.78v-41.04h-2.32
				c-5.59,0-8.39-1.89-8.39-5.68c0-3.61,2.97-5.42,8.91-5.42h7.1c4.56,0,6.84,3.01,6.84,9.03V683.5z"/>
		</g>
		<g class="st9">
			<path class="st10" d="M668.16,631.36h-7.1c-5.94,0-8.91,1.81-8.91,5.42c0,2.21,0.95,3.78,2.86,4.69
				c-0.28-0.66-0.42-1.41-0.42-2.26c0-3.61,2.97-5.42,8.91-5.42h7.1c1.25,0,2.33,0.23,3.24,0.68
				C672.73,632.4,670.84,631.36,668.16,631.36z M665.31,644.9h-2.44v38.61c0,4.45,1.17,7.21,3.51,8.27
				c-0.72-1.43-1.08-3.37-1.08-5.84V644.9z"/>
		</g>
	</g>
</g>
<g>
	<circle class="st5" cx="340.32" cy="338.56" r="327.13"/>
	<path class="st1" d="M393.76,641.4c-137.74,0-249.39-111.66-249.39-249.39c0-137.74,111.65-249.39,249.39-249.39
		c137.73,0,249.38,111.65,249.38,249.39C643.15,529.74,531.5,641.4,393.76,641.4z"/>
	
		<linearGradient id="SVGID_00000183211116960401123770000012991454634208292504_" gradientUnits="userSpaceOnUse" x1="132.0068" y1="155.5592" x2="554.6005" y2="526.8102">
		<stop  offset="0" style="stop-color:#FFFFFF"/>
		<stop  offset="0.3369" style="stop-color:#FCFCFC"/>
		<stop  offset="0.6371" style="stop-color:#F3F3F4"/>
		<stop  offset="0.9224" style="stop-color:#E4E4E4"/>
		<stop  offset="1" style="stop-color:#DFDFDF"/>
	</linearGradient>
	<circle style="fill:url(#SVGID_00000183211116960401123770000012991454634208292504_);" cx="340.32" cy="338.56" r="263.77"/>
	
		<linearGradient id="SVGID_00000041996708404044720390000004684027986814096045_" gradientUnits="userSpaceOnUse" x1="148.3676" y1="159.7842" x2="551.2178" y2="534.9883">
		<stop  offset="0" style="stop-color:#ECECEC"/>
		<stop  offset="0.191" style="stop-color:#F3F3F3"/>
		<stop  offset="0.5719" style="stop-color:#FCFCFC"/>
		<stop  offset="1" style="stop-color:#FFFFFF"/>
	</linearGradient>
	<path style="fill:url(#SVGID_00000041996708404044720390000004684027986814096045_);" d="M340.32,587.95
		c-137.74,0-249.39-111.66-249.39-249.39c0-137.74,111.65-249.39,249.39-249.39c137.73,0,249.38,111.65,249.38,249.39
		C589.7,476.29,478.05,587.95,340.32,587.95z"/>
</g>
<g>
	<circle class="st4" cx="1612.06" cy="338.56" r="327.13"/>
	<path class="st1" d="M1665.51,641.4c-137.74,0-249.39-111.66-249.39-249.39c0-137.74,111.65-249.39,249.39-249.39
		c137.73,0,249.38,111.65,249.38,249.39C1914.89,529.74,1803.24,641.4,1665.51,641.4z"/>
	
		<linearGradient id="SVGID_00000085248931047043149430000006507948145477597070_" gradientUnits="userSpaceOnUse" x1="1403.7512" y1="155.5592" x2="1826.345" y2="526.8102">
		<stop  offset="0" style="stop-color:#FFFFFF"/>
		<stop  offset="0.3369" style="stop-color:#FCFCFC"/>
		<stop  offset="0.6371" style="stop-color:#F3F3F4"/>
		<stop  offset="0.9224" style="stop-color:#E4E4E4"/>
		<stop  offset="1" style="stop-color:#DFDFDF"/>
	</linearGradient>
	<circle style="fill:url(#SVGID_00000085248931047043149430000006507948145477597070_);" cx="1612.06" cy="338.56" r="263.77"/>
	
		<linearGradient id="SVGID_00000148644764202621803960000001832163248059204508_" gradientUnits="userSpaceOnUse" x1="1420.1121" y1="159.7842" x2="1822.9624" y2="534.9883">
		<stop  offset="0" style="stop-color:#ECECEC"/>
		<stop  offset="0.191" style="stop-color:#F3F3F3"/>
		<stop  offset="0.5719" style="stop-color:#FCFCFC"/>
		<stop  offset="1" style="stop-color:#FFFFFF"/>
	</linearGradient>
	<path style="fill:url(#SVGID_00000148644764202621803960000001832163248059204508_);" d="M1612.06,587.95
		c-137.74,0-249.39-111.66-249.39-249.39c0-137.74,111.65-249.39,249.39-249.39c137.73,0,249.38,111.65,249.38,249.39
		C1861.45,476.29,1749.8,587.95,1612.06,587.95z"/>
</g>
<g>
	<circle class="st6" cx="1612.06" cy="1610.31" r="327.13"/>
	<path class="st1" d="M1665.51,1913.14c-137.74,0-249.39-111.66-249.39-249.39c0-137.74,111.65-249.39,249.39-249.39
		c137.73,0,249.38,111.65,249.38,249.39C1914.89,1801.48,1803.24,1913.14,1665.51,1913.14z"/>
	
		<linearGradient id="SVGID_00000008827988317125695800000016845948428482186916_" gradientUnits="userSpaceOnUse" x1="1403.7512" y1="1427.3036" x2="1826.345" y2="1798.5547">
		<stop  offset="0" style="stop-color:#FFFFFF"/>
		<stop  offset="0.3369" style="stop-color:#FCFCFC"/>
		<stop  offset="0.6371" style="stop-color:#F3F3F4"/>
		<stop  offset="0.9224" style="stop-color:#E4E4E4"/>
		<stop  offset="1" style="stop-color:#DFDFDF"/>
	</linearGradient>
	<circle style="fill:url(#SVGID_00000008827988317125695800000016845948428482186916_);" cx="1612.06" cy="1610.31" r="263.77"/>
	
		<linearGradient id="SVGID_00000105426427657603634980000012804535661127803823_" gradientUnits="userSpaceOnUse" x1="1420.1121" y1="1431.5287" x2="1822.9624" y2="1806.7328">
		<stop  offset="0" style="stop-color:#ECECEC"/>
		<stop  offset="0.191" style="stop-color:#F3F3F3"/>
		<stop  offset="0.5719" style="stop-color:#FCFCFC"/>
		<stop  offset="1" style="stop-color:#FFFFFF"/>
	</linearGradient>
	<path style="fill:url(#SVGID_00000105426427657603634980000012804535661127803823_);" d="M1612.06,1859.7
		c-137.74,0-249.39-111.66-249.39-249.39c0-137.74,111.65-249.39,249.39-249.39c137.73,0,249.38,111.65,249.38,249.39
		C1861.45,1748.04,1749.8,1859.7,1612.06,1859.7z"/>
</g>
<g>
	<g>
		<circle class="st4" cx="1288.8" cy="661.82" r="88.97"/>
		<path class="st1" d="M1303.34,744.18c-37.46,0-67.83-30.37-67.83-67.83c0-37.46,30.37-67.83,67.83-67.83
			c37.46,0,67.82,30.36,67.82,67.83C1371.16,713.81,1340.8,744.18,1303.34,744.18z"/>
		
			<linearGradient id="SVGID_00000133506646935168365240000007867725510074858137_" gradientUnits="userSpaceOnUse" x1="1232.1504" y1="612.0497" x2="1347.0817" y2="713.0175">
			<stop  offset="0" style="stop-color:#FFFFFF"/>
			<stop  offset="0.3369" style="stop-color:#FCFCFC"/>
			<stop  offset="0.6371" style="stop-color:#F3F3F4"/>
			<stop  offset="0.9224" style="stop-color:#E4E4E4"/>
			<stop  offset="1" style="stop-color:#DFDFDF"/>
		</linearGradient>
		<circle style="fill:url(#SVGID_00000133506646935168365240000007867725510074858137_);" cx="1288.8" cy="661.82" r="71.74"/>
		
			<linearGradient id="SVGID_00000093151127590302095180000002572499082976591264_" gradientUnits="userSpaceOnUse" x1="1236.5999" y1="613.1987" x2="1346.1617" y2="715.2417">
			<stop  offset="0" style="stop-color:#ECECEC"/>
			<stop  offset="0.191" style="stop-color:#F3F3F3"/>
			<stop  offset="0.5719" style="stop-color:#FCFCFC"/>
			<stop  offset="1" style="stop-color:#FFFFFF"/>
		</linearGradient>
		<path style="fill:url(#SVGID_00000093151127590302095180000002572499082976591264_);" d="M1288.8,729.65
			c-37.46,0-67.83-30.37-67.83-67.83c0-37.46,30.37-67.83,67.83-67.83c37.46,0,67.82,30.36,67.82,67.83
			C1356.63,699.28,1326.26,729.65,1288.8,729.65z"/>
	</g>
	<g>
		<g>
			<path class="st4" d="M1309.39,687.5c0,3.61-2.97,5.42-8.91,5.42h-24.91c-4.9,0-7.36-1.81-7.36-5.42c0-1.63,1.5-4.21,4.52-7.74
				c1.38-1.46,2.58-2.77,3.61-3.94c1.03-1.16,1.98-2.21,2.84-3.16c10.58-11.96,15.88-19.88,15.88-23.75c0-2.15-0.6-3.87-1.81-5.16
				c-1.21-1.29-2.75-1.94-4.65-1.94c-1.64,0-3.12,0.58-4.45,1.74c-1.34,1.16-2.43,2.99-3.29,5.49c-0.43,1.21-0.82,2.22-1.16,3.03
				c-0.34,0.82-0.65,1.4-0.9,1.74c-0.86,1.12-2.11,1.68-3.74,1.68c-1.72,0-3.12-0.58-4.19-1.74c-1.08-1.16-1.61-2.65-1.61-4.45
				c0-1.89,0.32-3.76,0.97-5.61c0.65-1.85,1.7-3.63,3.16-5.36c4.04-5.08,9.29-7.61,15.75-7.61c5.68,0,10.22,1.61,13.62,4.84
				c3.4,3.23,5.1,7.42,5.1,12.58c0,4.56-1.94,9.47-5.81,14.71c-3.01,4.13-8.69,10.45-17.04,18.97h15.49
				C1306.42,681.83,1309.39,683.72,1309.39,687.5z"/>
		</g>
		<g class="st9">
			<path class="st10" d="M1300.49,681.83h-10.68c-0.76,0.79-1.56,1.6-2.37,2.44h15.49c2.58,0,4.6,0.36,6.06,1.07
				C1307.99,683,1305.15,681.83,1300.49,681.83z M1302.74,635.55c-3.4-3.23-7.94-4.84-13.62-4.84c-6.45,0-11.7,2.54-15.74,7.61
				c-1.47,1.72-2.52,3.51-3.16,5.36c-0.65,1.85-0.97,3.72-0.97,5.62c0,1.81,0.54,3.29,1.61,4.45c0.45,0.49,0.97,0.88,1.54,1.16
				c-0.48-0.92-0.71-1.97-0.71-3.18c0-1.89,0.32-3.76,0.97-5.62c0.65-1.85,1.7-3.63,3.16-5.36c4.04-5.08,9.29-7.61,15.74-7.61
				c5.16,0,9.38,1.33,12.66,4C1303.77,636.59,1303.28,636.06,1302.74,635.55z M1295.7,646.19c-0.46-0.5-0.98-0.9-1.54-1.2
				c0.61,1.09,0.91,2.4,0.91,3.93c0,3.87-5.29,11.79-15.87,23.75c-0.86,0.95-1.81,2-2.84,3.16c-1.03,1.16-2.24,2.47-3.61,3.94
				c-3.01,3.53-4.52,6.11-4.52,7.74c0,2.24,0.94,3.79,2.83,4.64c-0.26-0.64-0.39-1.37-0.39-2.2c0-1.63,1.5-4.21,4.52-7.74
				c1.38-1.46,2.58-2.77,3.61-3.94c1.03-1.16,1.98-2.21,2.84-3.16c10.58-11.96,15.87-19.88,15.87-23.75
				C1297.5,649.2,1296.9,647.48,1295.7,646.19z"/>
		</g>
	</g>
</g>
<g>
	<g>
		<circle class="st0" cx="663.58" cy="1287.05" r="88.97"/>
		<path class="st1" d="M678.11,1369.41c-37.46,0-67.83-30.37-67.83-67.83c0-37.46,30.37-67.83,67.83-67.83
			c37.46,0,67.82,30.36,67.82,67.83C745.94,1339.04,715.57,1369.41,678.11,1369.41z"/>
		
			<linearGradient id="SVGID_00000026127387431736043610000014608246296065537449_" gradientUnits="userSpaceOnUse" x1="606.9243" y1="1237.2756" x2="721.8557" y2="1338.2435">
			<stop  offset="0" style="stop-color:#FFFFFF"/>
			<stop  offset="0.3369" style="stop-color:#FCFCFC"/>
			<stop  offset="0.6371" style="stop-color:#F3F3F4"/>
			<stop  offset="0.9224" style="stop-color:#E4E4E4"/>
			<stop  offset="1" style="stop-color:#DFDFDF"/>
		</linearGradient>
		<circle style="fill:url(#SVGID_00000026127387431736043610000014608246296065537449_);" cx="663.58" cy="1287.05" r="71.74"/>
		
			<linearGradient id="SVGID_00000051345991505610785210000013208508055709977494_" gradientUnits="userSpaceOnUse" x1="611.3739" y1="1238.4247" x2="720.9357" y2="1340.4677">
			<stop  offset="0" style="stop-color:#ECECEC"/>
			<stop  offset="0.191" style="stop-color:#F3F3F3"/>
			<stop  offset="0.5719" style="stop-color:#FCFCFC"/>
			<stop  offset="1" style="stop-color:#FFFFFF"/>
		</linearGradient>
		<path style="fill:url(#SVGID_00000051345991505610785210000013208508055709977494_);" d="M663.58,1354.87
			c-37.46,0-67.83-30.37-67.83-67.83c0-37.46,30.37-67.82,67.83-67.82c37.46,0,67.82,30.36,67.82,67.82
			C731.4,1324.5,701.04,1354.87,663.58,1354.87z"/>
	</g>
	<g>
		<g>
			<path class="st0" d="M687.2,1298.79c0,1.46-0.43,2.69-1.29,3.68c-0.86,0.99-2.11,1.48-3.74,1.48h-2.45v7.74
				c0,4.22-1.94,6.32-5.81,6.32c-3.27,0-4.9-2.28-4.9-6.84v-7.23h-21.55c-4.99,0-7.49-1.5-7.49-4.52c0-1.2,0.41-2.56,1.23-4.07
				c0.82-1.5,1.48-2.69,2-3.55l17.04-29.43c1.38-2.15,2.82-3.74,4.32-4.78c1.5-1.03,3.25-1.55,5.23-1.55c3.18,0,5.63,0.9,7.36,2.71
				c1.72,1.81,2.58,4.82,2.58,9.03v25.81h2.45c1.63,0,2.88,0.52,3.74,1.55C686.77,1296.21,687.2,1297.42,687.2,1298.79z
				 M669,1293.63v-26.59l-14.97,26.59H669z"/>
		</g>
		<g class="st9">
			<path class="st10" d="M669,1273.81v19.82h-11.16l-1.37,2.44h14.97v-26.59L669,1273.81z M671.44,1313.62v-7.23H669v4.79
				c0,3.63,1.04,5.82,3.11,6.55C671.66,1316.67,671.44,1315.3,671.44,1313.62z M677.13,1258.78c-1.72-1.81-4.18-2.71-7.36-2.71
				c-1.98,0-3.72,0.52-5.23,1.55c-1.51,1.03-2.95,2.63-4.32,4.78l-17.04,29.43c-0.52,0.86-1.18,2.04-2,3.55
				c-0.82,1.51-1.23,2.86-1.23,4.07c0,1.79,0.88,3.04,2.63,3.77c-0.13-0.4-0.19-0.85-0.19-1.33c0-1.2,0.41-2.56,1.23-4.07
				c0.82-1.5,1.48-2.69,2-3.55l17.04-29.43c1.38-2.15,2.82-3.74,4.32-4.78c1.5-1.03,3.25-1.55,5.23-1.55c2.33,0,4.27,0.49,5.82,1.46
				C677.76,1259.52,677.46,1259.13,677.13,1258.78z M685.91,1295.18c-0.86-1.03-2.11-1.55-3.74-1.55h-0.01v2.44h2.45
				c0.79,0,1.49,0.12,2.1,0.36C686.5,1295.99,686.23,1295.57,685.91,1295.18z"/>
		</g>
	</g>
</g>
<g>
	<g>
		<circle class="st6" cx="1288.8" cy="1287.05" r="88.97"/>
		<path class="st1" d="M1303.34,1369.41c-37.46,0-67.83-30.37-67.83-67.83c0-37.46,30.37-67.83,67.83-67.83
			c37.46,0,67.82,30.36,67.82,67.83C1371.16,1339.04,1340.8,1369.41,1303.34,1369.41z"/>
		
			<linearGradient id="SVGID_00000168833975132590315870000017138613790039000985_" gradientUnits="userSpaceOnUse" x1="1232.1504" y1="1237.2756" x2="1347.0817" y2="1338.2435">
			<stop  offset="0" style="stop-color:#FFFFFF"/>
			<stop  offset="0.3369" style="stop-color:#FCFCFC"/>
			<stop  offset="0.6371" style="stop-color:#F3F3F4"/>
			<stop  offset="0.9224" style="stop-color:#E4E4E4"/>
			<stop  offset="1" style="stop-color:#DFDFDF"/>
		</linearGradient>
		<circle style="fill:url(#SVGID_00000168833975132590315870000017138613790039000985_);" cx="1288.8" cy="1287.05" r="71.74"/>
		
			<linearGradient id="SVGID_00000034778333613461181190000003964643892703245744_" gradientUnits="userSpaceOnUse" x1="1236.5999" y1="1238.4247" x2="1346.1617" y2="1340.4677">
			<stop  offset="0" style="stop-color:#ECECEC"/>
			<stop  offset="0.191" style="stop-color:#F3F3F3"/>
			<stop  offset="0.5719" style="stop-color:#FCFCFC"/>
			<stop  offset="1" style="stop-color:#FFFFFF"/>
		</linearGradient>
		<path style="fill:url(#SVGID_00000034778333613461181190000003964643892703245744_);" d="M1288.8,1354.87
			c-37.46,0-67.83-30.37-67.83-67.83c0-37.46,30.37-67.82,67.83-67.82c37.46,0,67.82,30.36,67.82,67.82
			C1356.63,1324.5,1326.26,1354.87,1288.8,1354.87z"/>
	</g>
	<g>
		<g>
			<path class="st6" d="M1309.52,1299.95c0,5.51-1.98,10.07-5.94,13.68c-3.96,3.53-8.99,5.29-15.1,5.29
				c-4.82,0-9.21-1.44-13.16-4.31c-2.32-1.83-4.11-3.78-5.36-5.86c-1.25-2.08-1.87-4.07-1.87-5.96c0-1.72,0.47-3.1,1.42-4.13
				c0.95-1.03,2.19-1.55,3.74-1.55c1.03,0,1.96,0.28,2.77,0.84c0.82,0.56,1.7,1.44,2.65,2.65c1.81,2.75,3.14,4.43,4,5.03
				c1.72,1.46,3.74,2.19,6.07,2.19s4.3-0.86,5.94-2.58c1.63-1.72,2.45-3.86,2.45-6.44c0-2.66-0.75-4.59-2.26-5.79
				c-1.51-1.2-3.98-2.06-7.42-2.58c-3.36-0.6-5.03-2.36-5.03-5.28c0-1.54,0.36-2.68,1.1-3.41c0.73-0.73,2.04-1.35,3.94-1.87
				c4.9-1.12,7.36-3.6,7.36-7.47c0-4.2-2.07-6.31-6.2-6.31c-1.29-0.26-2.5,0-3.61,0.77c-1.12,0.77-2.22,1.69-3.29,2.77
				c-1.08,1.07-2.19,2.06-3.36,2.96c-1.16,0.9-2.39,1.35-3.68,1.35c-1.29,0-2.41-0.47-3.36-1.42c-0.95-0.94-1.42-2.15-1.42-3.61
				c0-3.17,1.94-6.26,5.81-9.27c4.04-3,8.43-4.51,13.17-4.51c2.58,0,4.95,0.41,7.1,1.23c2.15,0.82,4,1.94,5.55,3.36
				c1.55,1.42,2.75,3.1,3.61,5.03c0.86,1.94,1.29,4.07,1.29,6.39c0,2.5-0.6,4.73-1.81,6.71c-1.21,1.98-3.23,4.05-6.07,6.2
				C1305.86,1288.04,1309.52,1293.33,1309.52,1299.95z"/>
		</g>
		<g class="st9">
			<path class="st10" d="M1276.03,1297.95c-0.82-0.56-1.74-0.84-2.77-0.84c-1.55,0-2.8,0.52-3.74,1.55
				c-0.95,1.03-1.42,2.41-1.42,4.13c0,1.89,0.62,3.88,1.87,5.96c1.04,1.75,2.47,3.4,4.27,4.97c-0.71-0.82-1.32-1.66-1.83-2.53
				c-1.25-2.08-1.87-4.07-1.87-5.96c0-1.72,0.47-3.1,1.42-4.13c0.95-1.03,2.19-1.55,3.74-1.55c1.03,0,1.96,0.28,2.77,0.84
				c0.03,0.02,0.06,0.04,0.1,0.07C1277.66,1299.33,1276.81,1298.49,1276.03,1297.95z M1294.21,1269.12c0.4,0.9,0.59,2,0.59,3.3
				c0,3.86-2.45,6.35-7.36,7.47c-1.89,0.52-3.21,1.14-3.94,1.87c-0.73,0.73-1.1,1.87-1.1,3.41c0,2.19,0.94,3.72,2.83,4.61
				c-0.26-0.63-0.39-1.36-0.39-2.17c0-1.55,0.37-2.68,1.1-3.41c0.73-0.73,2.04-1.35,3.94-1.87c4.9-1.12,7.36-3.61,7.36-7.47
				C1297.24,1271.92,1296.23,1270,1294.21,1269.12z M1297.31,1295.46c-0.3-0.24-0.63-0.46-1.01-0.67c0.55,1.07,0.83,2.42,0.83,4.03
				c0,2.58-0.82,4.72-2.45,6.44c-1.64,1.72-3.61,2.58-5.94,2.58c-2.07,0-3.9-0.58-5.49-1.74c0.76,0.99,1.39,1.65,1.86,1.98
				c1.72,1.46,3.74,2.19,6.07,2.19s4.3-0.86,5.94-2.58c1.63-1.72,2.45-3.86,2.45-6.44
				C1299.57,1298.59,1298.81,1296.66,1297.31,1295.46z M1301.66,1286c-0.22,0.17-0.44,0.35-0.67,0.52c1.85,1,3.46,2.09,4.84,3.25
				C1304.7,1288.42,1303.31,1287.16,1301.66,1286z M1301.52,1259.75c-1.55-1.42-3.4-2.54-5.55-3.36c-2.15-0.82-4.52-1.23-7.1-1.23
				c-4.73,0-9.12,1.5-13.17,4.51c-3.87,3-5.81,6.1-5.81,9.27c0,1.46,0.47,2.66,1.42,3.61c0.44,0.44,0.93,0.78,1.45,1.02
				c-0.29-0.65-0.44-1.38-0.44-2.19c0-3.17,1.94-6.26,5.81-9.27c4.04-3,8.43-4.51,13.17-4.51c2.58,0,4.95,0.41,7.1,1.23
				c1.79,0.68,3.37,1.57,4.74,2.67C1302.66,1260.88,1302.11,1260.29,1301.52,1259.75z"/>
		</g>
		<g>
			
				<linearGradient id="SVGID_00000113342070186522607860000009857962561431368073_" gradientUnits="userSpaceOnUse" x1="1277.3523" y1="1299.5894" x2="1285.6525" y2="1308.2411">
				<stop  offset="0" style="stop-color:#687B8D"/>
				<stop  offset="1" style="stop-color:#778BA0"/>
			</linearGradient>
			<path style="fill:url(#SVGID_00000113342070186522607860000009857962561431368073_);" d="M1281.11,1303.04
				c-0.91-1.16-1.76-2.02-2.55-2.58c0.04,0.04,0.07,0.09,0.11,0.14c1.81,2.75,3.14,4.43,4,5.03c0.19,0.16,0.38,0.31,0.58,0.46
				C1282.63,1305.29,1281.92,1304.27,1281.11,1303.04z"/>
		</g>
	</g>
</g>
<g class="st24">
	<path class="st4" d="M1659.09,238.06H1655c-1.13,0-2.04-0.91-2.04-2.04s0.91-2.04,2.04-2.04h2.04v-8.17H1655
		c-1.13,0-2.04-0.92-2.04-2.04s0.91-2.04,2.04-2.04h4.09c1.13,0,2.04,0.91,2.04,2.04v12.26
		C1661.13,237.14,1660.22,238.06,1659.09,238.06z"/>
	<path class="st4" d="M1659.09,258.5H1655c-1.13,0-2.04-0.92-2.04-2.04s0.91-2.04,2.04-2.04h2.04v-8.17H1655
		c-1.13,0-2.04-0.91-2.04-2.04c0-1.13,0.91-2.04,2.04-2.04h4.09c1.13,0,2.04,0.92,2.04,2.04v12.26
		C1661.13,257.58,1660.22,258.5,1659.09,258.5z"/>
	<path class="st4" d="M1646.82,274.85c1.13,0,2.04-0.92,2.04-2.04v-53.14c0-3.38-2.75-6.13-6.13-6.13h-49.05
		c-0.54,0-1.06,0.22-1.44,0.6l-26.57,26.57c-0.38,0.38-0.6,0.9-0.6,1.44v79.7c0,3.38,2.75,6.13,6.13,6.13h71.53
		c3.38,0,6.13-2.75,6.13-6.13v-12.26c0-1.13-0.91-2.04-2.04-2.04s-2.04,0.92-2.04,2.04v12.26c0,1.13-0.92,2.04-2.04,2.04h-71.53
		c-1.13,0-2.04-0.92-2.04-2.04v-77.66h20.44c3.38,0,6.13-2.75,6.13-6.13v-20.44h47c1.13,0,2.04,0.92,2.04,2.04v53.14
		C1644.78,273.93,1645.69,274.85,1646.82,274.85z M1591.64,238.06c0,1.13-0.92,2.04-2.04,2.04h-17.55l19.59-19.59V238.06z"/>
	<path class="st4" d="M1677.77,263.14l-2.89-2.89c-2.31-2.31-6.36-2.31-8.67,0l-40.46,40.46c-0.23,0.22-0.39,0.5-0.49,0.8
		l-4.33,13.01c-0.25,0.73-0.05,1.54,0.49,2.09c0.39,0.39,0.91,0.6,1.44,0.6c0.22,0,0.44-0.03,0.65-0.1l13-4.34
		c0.3-0.1,0.57-0.27,0.8-0.49l40.46-40.46c1.16-1.16,1.79-2.7,1.79-4.34C1679.56,265.83,1678.92,264.29,1677.77,263.14z
		 M1663.32,268.92l5.78,5.78l-31.79,31.79l-5.78-5.78L1663.32,268.92z M1628.81,303.77l5.44,5.44l-8.16,2.72L1628.81,303.77z
		 M1674.88,268.92l-2.89,2.89l-5.78-5.78l2.89-2.89c0.77-0.77,2.12-0.77,2.89,0l2.89,2.89c0.38,0.38,0.59,0.9,0.59,1.45
		C1675.47,268.02,1675.26,268.54,1674.88,268.92z"/>
	<path class="st4" d="M1605.95,266.67h-24.52c-3.38,0-6.13-2.75-6.13-6.13c0-3.38,2.75-6.13,6.13-6.13h24.52
		c3.38,0,6.13,2.75,6.13,6.13C1612.08,263.92,1609.33,266.67,1605.95,266.67z M1581.43,258.5c-1.13,0-2.04,0.92-2.04,2.04
		c0,1.13,0.92,2.04,2.04,2.04h24.52c1.13,0,2.04-0.92,2.04-2.04c0-1.13-0.92-2.04-2.04-2.04H1581.43z"/>
	<path class="st4" d="M1605.95,285.06h-24.52c-3.38,0-6.13-2.75-6.13-6.13c0-3.38,2.75-6.13,6.13-6.13h24.52
		c3.38,0,6.13,2.75,6.13,6.13C1612.08,282.31,1609.33,285.06,1605.95,285.06z M1581.43,276.89c-1.13,0-2.04,0.92-2.04,2.04
		c0,1.13,0.92,2.04,2.04,2.04h24.52c1.13,0,2.04-0.92,2.04-2.04c0-1.13-0.92-2.04-2.04-2.04H1581.43z"/>
	<path class="st4" d="M1599.82,303.46h-18.39c-3.38,0-6.13-2.75-6.13-6.13c0-3.38,2.75-6.13,6.13-6.13h18.39
		c3.38,0,6.13,2.75,6.13,6.13C1605.95,300.71,1603.2,303.46,1599.82,303.46z M1581.43,295.28c-1.13,0-2.04,0.92-2.04,2.04
		c0,1.13,0.92,2.04,2.04,2.04h18.39c1.13,0,2.04-0.92,2.04-2.04c0-1.13-0.92-2.04-2.04-2.04H1581.43z"/>
</g>
<g class="st24">
	<path class="st0" d="M358.73,1474.2h-49.05c-0.54,0-1.06,0.22-1.44,0.6l-26.57,26.57c-0.38,0.38-0.6,0.9-0.6,1.44v79.7
		c0,3.38,2.75,6.13,6.13,6.13h55.18c1.13,0,2.04-0.92,2.04-2.04c0-1.13-0.92-2.04-2.04-2.04H287.2c-1.13,0-2.04-0.92-2.04-2.04
		v-77.66h20.44c3.38,0,6.13-2.75,6.13-6.13v-20.44h47c1.13,0,2.04,0.92,2.04,2.04v26.57c0,1.13,0.92,2.04,2.04,2.04
		s2.04-0.92,2.04-2.04v-26.57C364.86,1476.95,362.11,1474.2,358.73,1474.2z M307.64,1498.73c0,1.13-0.92,2.04-2.04,2.04h-17.55
		l19.59-19.59V1498.73z"/>
	<path class="st0" d="M342.38,1531.43c-1.13,0-2.04-0.92-2.04-2.04v-5.18h-4.09c-0.73,0-1.4-0.39-1.77-1.02
		c-0.36-0.63-0.36-1.41,0-2.04l12.26-21.24c0.73-1.27,2.81-1.27,3.54,0l12.26,21.24c0.36,0.63,0.36,1.41,0,2.04
		c-0.37,0.63-1.04,1.02-1.77,1.02h-4.32c-0.34,0.65-1.02,1.1-1.81,1.1c-1.13,0-2.04-0.92-2.04-2.04v-1.1c0-1.13,0.91-2.04,2.04-2.04
		h2.59l-8.72-15.11l-8.72,15.11h2.59c1.13,0,2.04,0.92,2.04,2.04v7.23C344.43,1530.51,343.51,1531.43,342.38,1531.43z"/>
	<path class="st0" d="M387.34,1531.43c-1.13,0-2.04-0.92-2.04-2.04v-19.49c0-1.13,0.92-2.04,2.04-2.04h2.59l-8.72-15.11l-8.72,15.11
		h2.59c1.13,0,2.04,0.92,2.04,2.04v13.36c0,1.13-0.92,2.04-2.04,2.04c-1.13,0-2.04-0.92-2.04-2.04v-11.31h-4.09
		c-0.73,0-1.41-0.39-1.77-1.02c-0.36-0.63-0.36-1.41,0-2.04l12.26-21.24c0.73-1.27,2.81-1.27,3.54,0l12.26,21.24
		c0.36,0.63,0.36,1.41,0,2.04c-0.37,0.63-1.04,1.02-1.77,1.02h-4.09v17.45C389.39,1530.51,388.47,1531.43,387.34,1531.43z"/>
	<path class="st0" d="M364.86,1588.65c-16.9,0-30.66-13.75-30.66-30.66c0-16.9,13.75-30.66,30.66-30.66s30.66,13.75,30.66,30.66
		C395.52,1574.9,381.77,1588.65,364.86,1588.65z M364.86,1531.43c-14.65,0-26.57,11.92-26.57,26.57s11.92,26.57,26.57,26.57
		s26.57-11.92,26.57-26.57S379.51,1531.43,364.86,1531.43z"/>
	<path class="st0" d="M364.86,1580.48c-12.4,0-22.48-10.08-22.48-22.48s10.08-22.48,22.48-22.48c12.4,0,22.48,10.08,22.48,22.48
		S377.26,1580.48,364.86,1580.48z M364.86,1539.6c-10.14,0-18.39,8.25-18.39,18.39c0,10.14,8.25,18.39,18.39,18.39
		c10.14,0,18.39-8.25,18.39-18.39C383.26,1547.85,375,1539.6,364.86,1539.6z"/>
	<path class="st0" d="M366.91,1545.73c0-1.13-0.92-2.04-2.04-2.04s-2.04,0.92-2.04,2.04v11.24l-7.36,5.52
		c-0.9,0.68-1.09,1.96-0.41,2.86c0.4,0.53,1.01,0.82,1.64,0.82c0.43,0,0.86-0.13,1.22-0.41l8.17-6.13c0.53-0.4,0.78-1.01,0.78-1.63
		h0.04V1545.73z"/>
	<path class="st0" d="M321.94,1527.34h-24.52c-3.38,0-6.13-2.75-6.13-6.13s2.75-6.13,6.13-6.13h24.52c3.38,0,6.13,2.75,6.13,6.13
		S325.33,1527.34,321.94,1527.34z M297.42,1519.17c-1.13,0-2.04,0.92-2.04,2.04s0.92,2.04,2.04,2.04h24.52
		c1.13,0,2.04-0.92,2.04-2.04s-0.92-2.04-2.04-2.04H297.42z"/>
	<path class="st0" d="M321.94,1545.73h-24.52c-3.38,0-6.13-2.75-6.13-6.13s2.75-6.13,6.13-6.13h24.52c3.38,0,6.13,2.75,6.13,6.13
		S325.33,1545.73,321.94,1545.73z M297.42,1537.56c-1.13,0-2.04,0.92-2.04,2.04s0.92,2.04,2.04,2.04h24.52
		c1.13,0,2.04-0.92,2.04-2.04s-0.92-2.04-2.04-2.04H297.42z"/>
	<path class="st0" d="M315.81,1564.13h-18.39c-3.38,0-6.13-2.75-6.13-6.13s2.75-6.13,6.13-6.13h18.39c3.38,0,6.13,2.75,6.13,6.13
		S319.19,1564.13,315.81,1564.13z M297.42,1555.95c-1.13,0-2.04,0.92-2.04,2.04c0,1.13,0.92,2.04,2.04,2.04h18.39
		c1.13,0,2.04-0.92,2.04-2.04c0-1.13-0.92-2.04-2.04-2.04H297.42z"/>
</g>
<g class="st24">
	<path class="st6" d="M1578.09,1559.08c-6.76,0-12.26-5.5-12.26-12.26c0-6.76,5.5-12.26,12.26-12.26c6.76,0,12.26,5.5,12.26,12.26
		C1590.36,1553.58,1584.86,1559.08,1578.09,1559.08z M1578.09,1538.65c-4.51,0-8.17,3.67-8.17,8.17c0,4.51,3.67,8.17,8.17,8.17
		s8.17-3.67,8.17-8.17C1586.27,1542.31,1582.6,1538.65,1578.09,1538.65z"/>
	<path class="st6" d="M1659.84,1559.08c-6.76,0-12.26-5.5-12.26-12.26c0-6.76,5.5-12.26,12.26-12.26s12.26,5.5,12.26,12.26
		C1672.1,1553.58,1666.6,1559.08,1659.84,1559.08z M1659.84,1538.65c-4.51,0-8.17,3.67-8.17,8.17c0,4.51,3.67,8.17,8.17,8.17
		c4.51,0,8.17-3.67,8.17-8.17C1668.02,1542.31,1664.35,1538.65,1659.84,1538.65z"/>
	<path class="st6" d="M1606.71,1510.03h-24.52c-3.38,0-6.13-2.75-6.13-6.13v-26.57c0-3.38,2.75-6.13,6.13-6.13h36.79
		c3.38,0,6.13,2.75,6.13,6.13v2.04c0,1.13-0.91,2.04-2.04,2.04c-1.13,0-2.04-0.92-2.04-2.04v-2.04c0-1.13-0.92-2.04-2.04-2.04
		h-36.79c-1.13,0-2.04,0.92-2.04,2.04v26.57c0,1.13,0.92,2.04,2.04,2.04h24.52c1.13,0,2.04,0.92,2.04,2.04
		S1607.84,1510.03,1606.71,1510.03z"/>
	<path class="st6" d="M1655.75,1524.34h-36.79c-3.38,0-6.13-2.75-6.13-6.13v-26.57c0-3.38,2.75-6.13,6.13-6.13h36.79
		c3.38,0,6.13,2.75,6.13,6.13v26.57C1661.89,1521.59,1659.14,1524.34,1655.75,1524.34z M1618.97,1489.6c-1.13,0-2.04,0.92-2.04,2.04
		v26.57c0,1.13,0.92,2.04,2.04,2.04h36.79c1.13,0,2.04-0.92,2.04-2.04v-26.57c0-1.13-0.92-2.04-2.04-2.04H1618.97z"/>
	<path class="st6" d="M1598.53,1514.12c-1.13,0-2.04,0.91-2.04,2.04v4.09h-18.39c-1.13,0-2.04,0.92-2.04,2.04v6.13
		c0,1.13,0.91,2.04,2.04,2.04c1.13,0,2.04-0.92,2.04-2.04v-4.09h18.39c1.13,0,2.04-0.92,2.04-2.04v-6.13
		C1600.58,1515.04,1599.66,1514.12,1598.53,1514.12z"/>
	<path class="st6" d="M1641.45,1542.73h-6.13v-12.26c0-1.13-0.91-2.04-2.04-2.04s-2.04,0.92-2.04,2.04v14.31
		c0,1.13,0.91,2.04,2.04,2.04h8.17c1.13,0,2.04-0.91,2.04-2.04C1643.49,1543.65,1642.58,1542.73,1641.45,1542.73z"/>
	<path class="st6" d="M1670.06,1585.65h-20.44c-3.38,0-6.13-2.75-6.13-6.13v-10.22c0-3.38,2.75-6.13,6.13-6.13h20.44
		c3.38,0,6.13,2.75,6.13,6.13v10.22C1676.19,1582.9,1673.44,1585.65,1670.06,1585.65z M1649.62,1567.26c-1.13,0-2.04,0.92-2.04,2.04
		v10.22c0,1.13,0.92,2.04,2.04,2.04h20.44c1.13,0,2.04-0.92,2.04-2.04v-10.22c0-1.13-0.92-2.04-2.04-2.04H1649.62z"/>
	<path class="st6" d="M1588.31,1585.65h-20.44c-3.38,0-6.13-2.75-6.13-6.13v-10.22c0-3.38,2.75-6.13,6.13-6.13h20.44
		c3.38,0,6.13,2.75,6.13,6.13v10.22C1594.44,1582.9,1591.69,1585.65,1588.31,1585.65z M1567.88,1567.26c-1.13,0-2.04,0.92-2.04,2.04
		v10.22c0,1.13,0.92,2.04,2.04,2.04h20.44c1.13,0,2.04-0.92,2.04-2.04v-10.22c0-1.13-0.92-2.04-2.04-2.04H1567.88z"/>
</g>
<g class="st24">
	<path class="st25" d="M370.04,313.73"/>
	<path class="st5" d="M386.39,213.54H284.2c-3.38,0-6.13,2.75-6.13,6.13v63.35v10.22c0,3.38,2.75,6.13,6.13,6.13h36.24l-2.73,8.17
		h-13.14c-3.35,0-6.07,2.72-6.07,6.19c0,3.35,2.72,6.07,6.07,6.07h47.06c1.13,0,2.04-0.92,2.04-2.04s-0.91-2.04-2.04-2.04h-47.06
		c-1.09,0-1.98-0.89-1.98-2.1c0-1.09,0.89-1.98,1.98-1.98h14.61h32.45c0.65,0,1.26-0.31,1.65-0.83c0.38-0.52,0.5-1.2,0.3-1.82
		l-3.01-9.61h1.06c1.13,0,2.04-0.91,2.04-2.04s-0.91-2.04-2.04-2.04H284.2c-1.13,0-2.04-0.92-2.04-2.04v-6.13h61.31
		c1.13,0,2.04-0.92,2.04-2.04s-0.92-2.04-2.04-2.04h-61.31v-63.35c0-1.13,0.92-2.04,2.04-2.04h102.18c1.13,0,2.04,0.92,2.04,2.04
		v26.57c0,1.13,0.92,2.04,2.04,2.04c1.13,0,2.04-0.92,2.04-2.04v-26.57C392.52,216.29,389.77,213.54,386.39,213.54z M324.75,299.37
		h21.55l2.56,8.17h-26.84L324.75,299.37z"/>
	<path class="st5" d="M386.39,299.37h-2.04c-1.13,0-2.04-0.91-2.04-2.04s0.92-2.04,2.04-2.04h2.04c1.13,0,2.04-0.92,2.04-2.04v-6.13
		c0-1.13,0.92-2.04,2.04-2.04c1.13,0,2.04,0.92,2.04,2.04v6.13C392.52,296.62,389.77,299.37,386.39,299.37z"/>
	<g>
		<path class="st5" d="M392.52,266.67c0-13.52-11-24.52-24.52-24.52c-13.52,0-24.52,11-24.52,24.52c0,11.4,7.83,20.98,18.39,23.72
			v5.27c-2.37,0.85-4.09,3.09-4.09,5.75v20.44c0,3.38,2.75,6.13,6.13,6.13h8.17c3.38,0,6.13-2.75,6.13-6.13v-20.44
			c0-2.66-1.71-4.91-4.09-5.75v-5.27C384.68,287.66,392.52,278.07,392.52,266.67z M347.56,266.67c0-11.27,9.17-20.44,20.44-20.44
			c11.27,0,20.44,9.17,20.44,20.44c0,11.27-9.17,20.44-20.44,20.44C356.72,287.11,347.56,277.94,347.56,266.67z M374.12,321.85
			c0,1.13-0.92,2.04-2.04,2.04h-8.17c-1.13,0-2.04-0.92-2.04-2.04v-20.44c0-1.13,0.92-2.04,2.04-2.04h8.17
			c1.13,0,2.04,0.92,2.04,2.04V321.85z M370.04,295.28h-4.09v-4.19c0.68,0.06,1.35,0.1,2.04,0.1c0.69,0,1.37-0.05,2.04-0.1V295.28z"
			/>
		<path class="st5" d="M384.34,266.67c0-1.13-0.92-2.04-2.04-2.04c-1.13,0-2.04,0.92-2.04,2.04c0,6.76-5.5,12.26-12.26,12.26
			c-1.13,0-2.04,0.92-2.04,2.04c0,1.13,0.92,2.04,2.04,2.04C377.01,283.02,384.34,275.69,384.34,266.67z"/>
	</g>
	<path class="st5" d="M345.49,233.97c0-0.26-0.03-0.53-0.14-0.78c-0.32-0.76-1.06-1.26-1.89-1.26h-10.22
		c-1.13,0-2.04,0.92-2.04,2.04s0.92,2.04,2.04,2.04h5.28l-21.79,21.79l-8.79-7.03c-0.85-0.68-2.08-0.58-2.8,0.24l-16.35,18.39
		c-0.75,0.84-0.67,2.14,0.17,2.89c0.39,0.35,0.87,0.52,1.36,0.52c0.56,0,1.12-0.23,1.53-0.69l15.06-16.94l8.7,6.96
		c0.81,0.65,1.99,0.59,2.72-0.15l23.08-23.08v5.28c0,1.13,0.92,2.04,2.04,2.04c1.13,0,2.04-0.91,2.04-2.04v-10.22H345.49z"/>
</g>
<rect x="149.19" y="350.43" class="st26" width="393" height="182"/>
<text transform="matrix(1 0 0 1 288.3441 377.0726)"><tspan x="0" y="0" class="st10 st27 st28">PHASE </tspan><tspan x="-115.84" y="44" class="st10 st27 st28">PREPARATOIRE: </tspan><tspan x="166.49" y="44" class="st10 st29 st28">Une </tspan><tspan x="-98.29" y="88" class="st10 st29 st28">scoping review de la </tspan><tspan x="-93.83" y="132" class="st10 st29 st28">théorie syndémique </tspan></text>
<rect x="777.62" y="961.36" class="st26" width="393" height="26.95"/>
<text transform="matrix(1 0 0 1 807.639 987.996)" class="st5 st27 st28">PHASES DU DELPHI</text>
<rect x="1418.3" y="357.68" class="st26" width="393" height="182"/>
<text transform="matrix(1 0 0 1 1479.1639 384.3244)"><tspan x="0" y="0" class="st10 st27 st28">PREMIER TOUR: </tspan><tspan x="-49.18" y="44" class="st10 st29 st30">Questions ouvertes sur la </tspan><tspan x="-57.6" y="88" class="st10 st29 st30">santé mentale, physique et </tspan><tspan x="-21.84" y="132" class="st10 st29 st30">le bien-être social des </tspan></text>
<rect x="1420.42" y="1618.46" class="st26" width="393" height="182"/>
<text transform="matrix(1 0 0 1 1465.8887 1645.1013)"><tspan x="0" y="0" class="st10 st27 st28">DEUXIEME TOUR: </tspan><tspan x="-28.92" y="44" class="st10 st29 st30">Échelles de Likert afin de </tspan><tspan x="-28.47" y="88" class="st10 st29 st30">sélectionner les variables </tspan><tspan x="10.85" y="132" class="st10 st29 st30">les plus pertinentes</tspan></text>
<rect x="138.94" y="1618.46" class="st26" width="393" height="182"/>
<text transform="matrix(1 0 0 1 182.0135 1645.1013)"><tspan x="0" y="0" class="st10 st27 st28">TROISIEME TOUR: </tspan><tspan x="-27" y="44" class="st10 st29 st30">Classement des variables </tspan><tspan x="-14.73" y="88" class="st10 st29 st30">les plus pertinentes par </tspan><tspan x="15.97" y="132" class="st10 st29 st30">ordre d’importance</tspan></text>
<path id="SVGID_x5F_00000131333603177291280590000010278196475245912751_x5F_" class="st26" d="M1377.77,1198.08l208.5-180.78"/>
<text><textPath  xlink:href="#SVGID_x5F_00000131333603177291280590000010278196475245912751_x5F_" startOffset="58.0322%">
</textPath>
</text>
</svg>
